<svg width="99" height="78" viewBox="0 0 99 78" fill="none" xmlns="http://www.w3.org/2000/svg">
<path d="M27.5 61.5L33.6948 55.3052C34.056 54.9441 34.4847 54.6578 34.9566 54.4624C35.4284 54.2671 35.9341 54.1666 36.4448 54.1667H36.6667C37.6391 54.1667 38.5717 54.553 39.2594 55.2406C39.947 55.9283 40.3333 56.8609 40.3333 57.8334C40.3333 58.8058 39.947 59.7384 39.2594 60.4261C38.5717 61.1137 37.6391 61.5 36.6667 61.5H7.33332C6.36086 61.5 5.42823 61.1137 4.7406 60.4261C4.05296 59.7384 3.66666 58.8058 3.66666 57.8334C3.66666 56.8609 4.05296 55.9283 4.7406 55.2406C5.42823 54.553 6.36086 54.1667 7.33332 54.1667H15.6108C18.5277 54.1668 21.3251 55.3255 23.3878 57.3879L27.5 61.5ZM5.49999 61.5H38.5V65.1667C38.5 66.6254 37.9205 68.0243 36.8891 69.0558C35.8576 70.0872 34.4587 70.6667 33 70.6667H11C9.5413 70.6667 8.14235 70.0872 7.1109 69.0558C6.07945 68.0243 5.49999 66.6254 5.49999 65.1667V61.5Z" stroke="white" stroke-width="2" stroke-linecap="round" stroke-linejoin="round"/>
<path d="M27.5018 46.8333H27.5M22.0018 48.6667H22M22 41.3333C13.5245 41.3333 6.54131 44.5527 5.60631 52.3333C5.48531 53.3417 6.32131 54.1667 7.33331 54.1667H36.6666C37.6786 54.1667 38.5146 53.3417 38.3936 52.3333C37.4586 44.5527 30.4755 41.3333 22 41.3333Z" stroke="white" stroke-width="2" stroke-linecap="round" stroke-linejoin="round"/>
<path d="M9.30469 34.4531C9.30469 34.8867 9.33398 35.291 9.39258 35.666C9.45117 36.0293 9.5625 36.3457 9.72656 36.6152C9.89062 36.8965 10.1074 37.1133 10.377 37.2656C10.6582 37.4297 11.0215 37.5117 11.4668 37.5117C12.0059 37.5117 12.5391 37.3184 13.0664 36.9316C13.6055 36.5566 14.1152 36.0879 14.5957 35.5254C15.0879 34.9512 15.5508 34.3301 15.9844 33.6621C16.4297 32.9941 16.8281 32.3789 17.1797 31.8164C17.5312 31.2422 17.8359 30.7676 18.0938 30.3926C18.3516 30.0059 18.5449 29.8125 18.6738 29.8125C18.7324 29.8125 18.8086 29.8301 18.9023 29.8652C18.9961 29.8887 19.0781 29.9297 19.1484 29.9883C19.2188 30.0469 19.2656 30.1289 19.2891 30.2344C19.3125 30.3398 19.2891 30.4629 19.2188 30.6035C18.8789 31.2715 18.498 31.9688 18.0762 32.6953C17.666 33.4219 17.2207 34.1367 16.7402 34.8398C16.2598 35.5312 15.75 36.1934 15.2109 36.8262C14.6719 37.459 14.1094 38.0156 13.5234 38.4961C12.9375 38.9766 12.3281 39.3574 11.6953 39.6387C11.0742 39.9199 10.4355 40.0605 9.7793 40.0605C9.07617 40.0605 8.4375 39.9434 7.86328 39.709C7.28906 39.4746 6.79688 39.1172 6.38672 38.6367C5.97656 38.1562 5.66016 37.541 5.4375 36.791C5.21484 36.041 5.10352 35.1562 5.10352 34.1367C5.10352 32.7891 5.27344 31.4004 5.61328 29.9707C5.95312 28.541 6.42188 27.1113 7.01953 25.6816C7.61719 24.2402 8.31445 22.8281 9.11133 21.4453C9.9082 20.0625 10.7637 18.7559 11.6777 17.5254C12.6035 16.2832 13.5586 15.1406 14.543 14.0977C15.5391 13.0547 16.5234 12.1523 17.4961 11.3906C18.4688 10.6289 19.4121 10.0371 20.3262 9.61523C21.2402 9.18164 22.0781 8.96484 22.8398 8.96484C23.4258 8.96484 23.9121 9.05273 24.2988 9.22852C24.6855 9.39258 24.9902 9.60938 25.2129 9.87891C25.4473 10.1484 25.6055 10.459 25.6875 10.8105C25.7812 11.1504 25.8281 11.4961 25.8281 11.8477C25.8281 12.4687 25.7402 13.0488 25.5645 13.5879C25.4004 14.1152 25.1836 14.5957 24.9141 15.0293C24.6445 15.4512 24.3457 15.8262 24.0176 16.1543C23.6895 16.4824 23.3672 16.7578 23.0508 16.9805C22.7344 17.2031 22.4355 17.373 22.1543 17.4902C21.8848 17.5957 21.6738 17.6484 21.5215 17.6484C21.3574 17.6484 21.2402 17.6309 21.1699 17.5957C21.1113 17.5605 21.082 17.4434 21.082 17.2441C21.1289 16.8926 21.2578 16.5469 21.4688 16.207C21.6797 15.8555 21.9023 15.4805 22.1367 15.082C22.3711 14.6836 22.5762 14.2383 22.752 13.7461C22.9395 13.2539 23.0332 12.6914 23.0332 12.0586C23.0332 11.8945 23.0156 11.7246 22.9805 11.5488C22.957 11.3613 22.9102 11.1914 22.8398 11.0391C22.7812 10.8867 22.6934 10.7637 22.5762 10.6699C22.459 10.5645 22.3125 10.5117 22.1367 10.5117C21.6328 10.5117 21.0645 10.7285 20.4316 11.1621C19.7988 11.5957 19.1309 12.1992 18.4277 12.9727C17.7363 13.7344 17.0273 14.6367 16.3008 15.6797C15.5859 16.7109 14.8887 17.8301 14.209 19.0371C13.541 20.2441 12.9082 21.5156 12.3105 22.8516C11.7129 24.1758 11.1914 25.5059 10.7461 26.8418C10.3008 28.1777 9.94922 29.4961 9.69141 30.7969C9.43359 32.0859 9.30469 33.3047 9.30469 34.4531ZM33.8789 30.1641C33.6328 30.8203 33.3223 31.5059 32.9473 32.2207C32.584 32.9355 32.1797 33.5918 31.7344 34.1895C31.2891 34.7754 30.8145 35.2617 30.3105 35.6484C29.8066 36.0234 29.3027 36.2109 28.7988 36.2109C28.459 36.2109 28.1777 36.1289 27.9551 35.9648C27.7324 35.7891 27.5508 35.5781 27.4102 35.332C27.2812 35.0742 27.1875 34.7988 27.1289 34.5059C27.0703 34.2129 27.041 33.9434 27.041 33.6973C27.041 33.3223 27.082 32.8887 27.1641 32.3965C27.2578 31.9043 27.4336 31.3418 27.6914 30.709C27.293 31.248 26.8711 31.7988 26.4258 32.3613C25.9922 32.9121 25.5469 33.4102 25.0898 33.8555C24.6445 34.3008 24.1934 34.6699 23.7363 34.9629C23.291 35.2441 22.8691 35.3848 22.4707 35.3848C22.2832 35.3848 22.084 35.3379 21.873 35.2441C21.6621 35.1387 21.4688 34.9922 21.293 34.8047C21.1055 34.6055 20.9531 34.3652 20.8359 34.084C20.7188 33.791 20.6602 33.457 20.6602 33.082C20.6602 32.4492 20.8066 31.752 21.0996 30.9902C21.3926 30.2168 21.7617 29.4434 22.207 28.6699C22.6641 27.8965 23.168 27.1465 23.7188 26.4199C24.2695 25.6934 24.8027 25.0605 25.3184 24.5215C25.7871 24.0176 26.2266 23.5898 26.6367 23.2383C27.0586 22.8867 27.4512 22.6055 27.8145 22.3945C28.1895 22.1719 28.541 22.0137 28.8691 21.9199C29.1973 21.8145 29.5137 21.7559 29.8184 21.7441C30.0996 21.7441 30.334 21.7793 30.5215 21.8496C30.709 21.9082 30.8555 21.9902 30.9609 22.0957C31.0664 22.2012 31.1367 22.3242 31.1719 22.4648C31.2188 22.6055 31.2422 22.752 31.2422 22.9043C31.2422 23.0684 31.1953 23.2793 31.1016 23.5371C31.0078 23.7949 30.8789 24.0527 30.7148 24.3105C30.5508 24.5684 30.3574 24.791 30.1348 24.9785C29.9238 25.1543 29.6953 25.2422 29.4492 25.2422C29.3555 25.2422 29.2969 25.207 29.2734 25.1367C29.25 25.0664 29.2383 24.9785 29.2383 24.873C29.2383 24.6738 29.2617 24.4395 29.3086 24.1699C29.3555 23.9004 29.3789 23.666 29.3789 23.4668C29.3789 23.291 29.3555 23.168 29.3086 23.0977C29.2734 23.0156 29.1914 22.9746 29.0625 22.9746C28.7578 23.1035 28.4297 23.3555 28.0781 23.7305C27.7383 24.0938 27.3984 24.5273 27.0586 25.0312C26.7188 25.5234 26.3906 26.0625 26.0742 26.6484C25.7695 27.2227 25.4941 27.7969 25.248 28.3711C25.0137 28.9336 24.8262 29.4727 24.6855 29.9883C24.5449 30.4922 24.4746 30.9141 24.4746 31.2539C24.4746 31.5 24.5098 31.6934 24.5801 31.834C24.6504 31.9746 24.7383 32.0449 24.8438 32.0449C24.9258 32.0449 25.0547 31.9688 25.2305 31.8164C25.4062 31.6641 25.6055 31.4648 25.8281 31.2188C26.0625 30.9727 26.3027 30.6973 26.5488 30.3926C26.7949 30.0762 27.0352 29.7656 27.2695 29.4609C27.5156 29.1562 27.7383 28.8691 27.9375 28.5996C28.1367 28.3301 28.2949 28.1074 28.4121 27.9316C28.7168 27.4863 28.9277 27.1406 29.0449 26.8945C29.1738 26.6484 29.3086 26.5254 29.4492 26.5254C29.5078 26.5254 29.5898 26.5723 29.6953 26.666C29.8125 26.7598 29.9238 26.8711 30.0293 27C30.1465 27.1172 30.2461 27.2402 30.3281 27.3691C30.4102 27.498 30.4512 27.5918 30.4512 27.6504C30.4512 27.8145 30.375 28.0488 30.2227 28.3535C30.0703 28.6465 29.8594 29.1211 29.5898 29.7773C29.2852 30.4805 29.0566 31.1367 28.9043 31.7461C28.7637 32.3555 28.6934 32.8945 28.6934 33.3633C28.6934 33.5273 28.7051 33.6914 28.7285 33.8555C28.752 34.0195 28.793 34.1719 28.8516 34.3125C28.9102 34.4414 28.9922 34.5527 29.0977 34.6465C29.2031 34.7285 29.3438 34.7695 29.5195 34.7695C29.8008 34.7695 30.0879 34.6582 30.3809 34.4355C30.6855 34.2012 30.9727 33.9082 31.2422 33.5566C31.5234 33.2051 31.7871 32.8301 32.0332 32.4316C32.2793 32.0215 32.4961 31.6348 32.6836 31.2715C32.8711 30.9082 33.0176 30.6035 33.123 30.3574C33.2402 30.0996 33.3105 29.9531 33.334 29.918C33.4277 29.7305 33.5391 29.6367 33.668 29.6367C33.7383 29.6367 33.8027 29.6602 33.8613 29.707C33.9199 29.7539 33.9492 29.8242 33.9492 29.918C33.9492 29.9883 33.9258 30.0703 33.8789 30.1641ZM43.3535 30.1641C43.1895 30.4805 42.9785 30.8496 42.7207 31.2715C42.4629 31.6816 42.1699 32.1094 41.8418 32.5547C41.5137 32.9883 41.1562 33.4219 40.7695 33.8555C40.3945 34.2891 40.002 34.6758 39.5918 35.0156C39.1934 35.3438 38.7832 35.6133 38.3613 35.8242C37.9512 36.0352 37.5527 36.1406 37.166 36.1406C36.9199 36.1406 36.6738 36.1055 36.4277 36.0352C36.1934 35.9648 35.9766 35.8594 35.7773 35.7188C35.5898 35.5664 35.4375 35.3789 35.3203 35.1562C35.2031 34.9336 35.1445 34.6641 35.1445 34.3477C35.1445 33.9141 35.2266 33.457 35.3906 32.9766C35.5664 32.4844 35.7832 31.9922 36.041 31.5C36.3105 30.9961 36.5918 30.5039 36.8848 30.0234C37.1895 29.543 37.4707 29.0859 37.7285 28.6523C37.998 28.207 38.2148 27.8027 38.3789 27.4395C38.5547 27.0762 38.6426 26.7598 38.6426 26.4902C38.6426 26.3848 38.5781 26.3027 38.4492 26.2441C38.332 26.1738 38.168 26.1387 37.957 26.1387C37.8516 26.1387 37.7109 26.1562 37.5352 26.1914C37.3711 26.2266 37.1836 26.2676 36.9727 26.3145C36.7617 26.3613 36.5332 26.4141 36.2871 26.4727C36.0527 26.5195 35.8184 26.5605 35.584 26.5957C35.2207 27.4746 34.8574 28.2949 34.4941 29.0566C34.1309 29.8184 33.8203 30.416 33.5625 30.8496C33.4688 31.0137 33.3926 31.1309 33.334 31.2012C33.2637 31.2598 33.1816 31.2891 33.0879 31.2891C32.9238 31.2891 32.8418 31.2129 32.8418 31.0605C32.8418 31.002 32.8535 30.9375 32.877 30.8672C32.8887 30.7852 32.9121 30.709 32.9473 30.6387C33.2871 30.0059 33.6094 29.3613 33.9141 28.7051C34.2305 28.0371 34.5352 27.3633 34.8281 26.6836C34.5586 26.6836 34.3652 26.6309 34.248 26.5254C34.1309 26.4082 34.0723 26.2324 34.0723 25.998C34.0723 25.752 34.1309 25.4473 34.248 25.084C34.377 24.709 34.5352 24.3223 34.7227 23.9238C34.9102 23.5137 35.1211 23.1094 35.3555 22.7109C35.5898 22.3008 35.8242 21.9375 36.0586 21.6211C36.293 21.293 36.5039 21.0293 36.6914 20.8301C36.8906 20.6191 37.0488 20.5137 37.166 20.5137C37.2598 20.5137 37.3535 20.5488 37.4473 20.6191C37.541 20.6895 37.5879 20.7891 37.5879 20.918C37.5879 21.0938 37.5352 21.3691 37.4297 21.7441C37.3242 22.1191 37.1895 22.5527 37.0254 23.0449C37.5176 22.9746 37.9453 22.9219 38.3086 22.8867C38.6836 22.8398 38.9707 22.8164 39.1699 22.8164C39.6504 22.8164 40.0488 22.9102 40.3652 23.0977C40.6816 23.2734 40.8398 23.5078 40.8398 23.8008C40.8398 23.9766 40.7754 24.2461 40.6465 24.6094C40.5176 24.9609 40.3594 25.3711 40.1719 25.8398C39.9844 26.3086 39.7793 26.8184 39.5566 27.3691C39.334 27.9082 39.1289 28.459 38.9414 29.0215C38.7539 29.5723 38.5957 30.1113 38.4668 30.6387C38.3379 31.166 38.2734 31.6465 38.2734 32.0801C38.2734 32.4199 38.3379 32.707 38.4668 32.9414C38.6074 33.1758 38.8184 33.293 39.0996 33.293C39.3105 33.293 39.5449 33.2461 39.8027 33.1523C40.0723 33.0469 40.3652 32.8711 40.6816 32.625C40.998 32.3672 41.332 32.0215 41.6836 31.5879C42.0469 31.1426 42.4219 30.5859 42.8086 29.918C42.9023 29.7305 43.0137 29.6367 43.1426 29.6367C43.2129 29.6367 43.2773 29.6602 43.3359 29.707C43.3945 29.7539 43.4238 29.8242 43.4238 29.918C43.4238 29.9883 43.4004 30.0703 43.3535 30.1641ZM60.123 9.86133C60.1816 9.95508 60.2227 10.1133 60.2461 10.3359C60.2812 10.5469 60.2988 10.7988 60.2988 11.0918C60.2988 11.6426 60.2168 12.2285 60.0527 12.8496C59.8887 13.459 59.6484 14.1211 59.332 14.8359C59.0273 15.5391 58.6523 16.3008 58.207 17.1211C57.7617 17.9297 57.2578 18.8086 56.6953 19.7578C55.8398 21.1992 55.0195 22.5938 54.2344 23.9414C53.4609 25.2891 52.7754 26.5547 52.1777 27.7383C51.5801 28.9219 51.1055 30.0176 50.7539 31.0254C50.4023 32.0332 50.2266 32.9121 50.2266 33.6621C50.2266 33.9551 50.2793 34.1895 50.3848 34.3652C50.502 34.541 50.7129 34.6289 51.0176 34.6289C51.416 34.6289 51.8145 34.4824 52.2129 34.1895C52.6113 33.8965 52.9863 33.5215 53.3379 33.0645C53.7012 32.6074 54.041 32.1035 54.3574 31.5527C54.6855 30.9902 54.9727 30.4453 55.2188 29.918C55.3125 29.7305 55.4238 29.6367 55.5527 29.6367C55.623 29.6367 55.6875 29.6602 55.7461 29.707C55.8047 29.7539 55.834 29.8242 55.834 29.918C55.834 29.9883 55.8105 30.0703 55.7637 30.1641C55.5996 30.5273 55.4062 30.9316 55.1836 31.377C54.9609 31.8223 54.709 32.2734 54.4277 32.7305C54.1582 33.1758 53.8594 33.6152 53.5312 34.0488C53.2031 34.4824 52.8516 34.8691 52.4766 35.209C52.1133 35.5371 51.7266 35.8008 51.3164 36C50.9062 36.2109 50.4785 36.3164 50.0332 36.3164C49.5176 36.3164 49.0898 36.1465 48.75 35.8066C48.4102 35.4668 48.2402 34.8691 48.2402 34.0137C48.2402 33.7793 48.2461 33.5332 48.2578 33.2754C48.2812 33.0059 48.3223 32.7363 48.3809 32.4668C48.0527 32.959 47.7012 33.4336 47.3262 33.8906C46.9629 34.3477 46.582 34.7578 46.1836 35.1211C45.7969 35.4844 45.3984 35.7773 44.9883 36C44.5898 36.2109 44.1973 36.3164 43.8105 36.3164C43.5996 36.3164 43.3711 36.2637 43.125 36.1582C42.8906 36.0645 42.668 35.9004 42.457 35.666C42.2461 35.4316 42.0703 35.127 41.9297 34.752C41.7891 34.3652 41.7188 33.8906 41.7188 33.3281C41.7188 32.6484 41.8711 31.8516 42.1758 30.9375C42.4688 30.0234 43.002 28.9863 43.7754 27.8262C44.2676 27.1113 44.8652 26.4082 45.5684 25.7168C46.2832 25.0254 47.0156 24.4102 47.7656 23.8711C48.5273 23.3203 49.2598 22.8809 49.9629 22.5527C50.666 22.2246 51.2578 22.0605 51.7383 22.0605C51.7734 22.0605 51.8203 22.0781 51.8789 22.1133C51.9375 22.1484 51.9961 22.1836 52.0547 22.2188C52.9219 20.1797 53.8711 18.2051 54.9023 16.2949C55.9336 14.373 57.0703 12.6152 58.3125 11.0215C58.6055 10.6582 58.8984 10.3594 59.1914 10.125C59.4844 9.87891 59.7188 9.75586 59.8945 9.75586C60.0117 9.75586 60.0879 9.79102 60.123 9.86133ZM50.7539 25.5234C50.8828 25.1602 51.0176 24.8027 51.1582 24.4512C51.2988 24.0879 51.4395 23.7246 51.5801 23.3613C51.3691 23.4434 51.123 23.5547 50.8418 23.6953C50.5723 23.8359 50.2676 24.0176 49.9277 24.2402C49.5879 24.4629 49.2246 24.7383 48.8379 25.0664C48.4512 25.3828 48.0469 25.7637 47.625 26.209C46.7578 27.123 46.0547 28.1074 45.5156 29.1621C44.9766 30.2051 44.707 31.2363 44.707 32.2559C44.707 32.7246 44.7891 33.0352 44.9531 33.1875C45.1172 33.3398 45.2988 33.416 45.498 33.416C45.7441 33.416 46.0137 33.3223 46.3066 33.1348C46.5996 32.9355 46.8984 32.6777 47.2031 32.3613C47.5195 32.0332 47.8418 31.6523 48.1699 31.2188C48.498 30.7734 48.8203 30.3047 49.1367 29.8125C49.4062 29.0156 49.6875 28.2422 49.9805 27.4922C50.2852 26.7422 50.543 26.0859 50.7539 25.5234ZM67.5586 30.1641C67.3125 30.8203 67.002 31.5059 66.627 32.2207C66.2637 32.9355 65.8594 33.5918 65.4141 34.1895C64.9688 34.7754 64.4941 35.2617 63.9902 35.6484C63.4863 36.0234 62.9824 36.2109 62.4785 36.2109C62.1387 36.2109 61.8574 36.1289 61.6348 35.9648C61.4121 35.7891 61.2305 35.5781 61.0898 35.332C60.9609 35.0742 60.8672 34.7988 60.8086 34.5059C60.75 34.2129 60.7207 33.9434 60.7207 33.6973C60.7207 33.3223 60.7617 32.8887 60.8438 32.3965C60.9375 31.9043 61.1133 31.3418 61.3711 30.709C60.9727 31.248 60.5508 31.7988 60.1055 32.3613C59.6719 32.9121 59.2266 33.4102 58.7695 33.8555C58.3242 34.3008 57.873 34.6699 57.416 34.9629C56.9707 35.2441 56.5488 35.3848 56.1504 35.3848C55.9629 35.3848 55.7637 35.3379 55.5527 35.2441C55.3418 35.1387 55.1484 34.9922 54.9727 34.8047C54.7852 34.6055 54.6328 34.3652 54.5156 34.084C54.3984 33.791 54.3398 33.457 54.3398 33.082C54.3398 32.4492 54.4863 31.752 54.7793 30.9902C55.0723 30.2168 55.4414 29.4434 55.8867 28.6699C56.3438 27.8965 56.8477 27.1465 57.3984 26.4199C57.9492 25.6934 58.4824 25.0605 58.998 24.5215C59.4668 24.0176 59.9062 23.5898 60.3164 23.2383C60.7383 22.8867 61.1309 22.6055 61.4941 22.3945C61.8691 22.1719 62.2207 22.0137 62.5488 21.9199C62.877 21.8145 63.1934 21.7559 63.498 21.7441C63.7793 21.7441 64.0137 21.7793 64.2012 21.8496C64.3887 21.9082 64.5352 21.9902 64.6406 22.0957C64.7461 22.2012 64.8164 22.3242 64.8516 22.4648C64.8984 22.6055 64.9219 22.752 64.9219 22.9043C64.9219 23.0684 64.875 23.2793 64.7812 23.5371C64.6875 23.7949 64.5586 24.0527 64.3945 24.3105C64.2305 24.5684 64.0371 24.791 63.8145 24.9785C63.6035 25.1543 63.375 25.2422 63.1289 25.2422C63.0352 25.2422 62.9766 25.207 62.9531 25.1367C62.9297 25.0664 62.918 24.9785 62.918 24.873C62.918 24.6738 62.9414 24.4395 62.9883 24.1699C63.0352 23.9004 63.0586 23.666 63.0586 23.4668C63.0586 23.291 63.0352 23.168 62.9883 23.0977C62.9531 23.0156 62.8711 22.9746 62.7422 22.9746C62.4375 23.1035 62.1094 23.3555 61.7578 23.7305C61.418 24.0938 61.0781 24.5273 60.7383 25.0312C60.3984 25.5234 60.0703 26.0625 59.7539 26.6484C59.4492 27.2227 59.1738 27.7969 58.9277 28.3711C58.6934 28.9336 58.5059 29.4727 58.3652 29.9883C58.2246 30.4922 58.1543 30.9141 58.1543 31.2539C58.1543 31.5 58.1895 31.6934 58.2598 31.834C58.3301 31.9746 58.418 32.0449 58.5234 32.0449C58.6055 32.0449 58.7344 31.9688 58.9102 31.8164C59.0859 31.6641 59.2852 31.4648 59.5078 31.2188C59.7422 30.9727 59.9824 30.6973 60.2285 30.3926C60.4746 30.0762 60.7148 29.7656 60.9492 29.4609C61.1953 29.1562 61.418 28.8691 61.6172 28.5996C61.8164 28.3301 61.9746 28.1074 62.0918 27.9316C62.3965 27.4863 62.6074 27.1406 62.7246 26.8945C62.8535 26.6484 62.9883 26.5254 63.1289 26.5254C63.1875 26.5254 63.2695 26.5723 63.375 26.666C63.4922 26.7598 63.6035 26.8711 63.709 27C63.8262 27.1172 63.9258 27.2402 64.0078 27.3691C64.0898 27.498 64.1309 27.5918 64.1309 27.6504C64.1309 27.8145 64.0547 28.0488 63.9023 28.3535C63.75 28.6465 63.5391 29.1211 63.2695 29.7773C62.9648 30.4805 62.7363 31.1367 62.584 31.7461C62.4434 32.3555 62.373 32.8945 62.373 33.3633C62.373 33.5273 62.3848 33.6914 62.4082 33.8555C62.4316 34.0195 62.4727 34.1719 62.5312 34.3125C62.5898 34.4414 62.6719 34.5527 62.7773 34.6465C62.8828 34.7285 63.0234 34.7695 63.1992 34.7695C63.4805 34.7695 63.7676 34.6582 64.0605 34.4355C64.3652 34.2012 64.6523 33.9082 64.9219 33.5566C65.2031 33.2051 65.4668 32.8301 65.7129 32.4316C65.959 32.0215 66.1758 31.6348 66.3633 31.2715C66.5508 30.9082 66.6973 30.6035 66.8027 30.3574C66.9199 30.0996 66.9902 29.9531 67.0137 29.918C67.1074 29.7305 67.2188 29.6367 67.3477 29.6367C67.418 29.6367 67.4824 29.6602 67.541 29.707C67.5996 29.7539 67.6289 29.8242 67.6289 29.918C67.6289 29.9883 67.6055 30.0703 67.5586 30.1641ZM66.5215 14.6953C66.5918 14.5898 66.6973 14.5078 66.8379 14.4492C66.9902 14.3906 67.1484 14.3613 67.3125 14.3613C67.5 14.3613 67.6934 14.3906 67.8926 14.4492C68.0918 14.4961 68.2734 14.5723 68.4375 14.6777C68.6016 14.7715 68.7363 14.8828 68.8418 15.0117C68.9473 15.1406 69 15.2754 69 15.416C69 15.5215 68.9648 15.627 68.8945 15.7324C68.8477 15.791 68.7129 15.9082 68.4902 16.084C68.2793 16.248 68.0039 16.4473 67.6641 16.6816C67.3359 16.916 66.9609 17.1738 66.5391 17.4551C66.1289 17.7363 65.7012 18.0176 65.2559 18.2988C64.8105 18.5684 64.3652 18.832 63.9199 19.0898C63.4746 19.3359 63.0645 19.5527 62.6895 19.7402C62.5488 19.8105 62.4258 19.8574 62.3203 19.8809C62.2148 19.9043 62.127 19.916 62.0566 19.916C61.9043 19.916 61.793 19.8867 61.7227 19.8281C61.6523 19.7695 61.6172 19.6992 61.6172 19.6172C61.6172 19.5 61.6875 19.3711 61.8281 19.2305C62.3086 18.7969 62.7656 18.3984 63.1992 18.0352C63.6328 17.6602 64.043 17.2969 64.4297 16.9453C64.8281 16.5938 65.1973 16.2363 65.5371 15.873C65.8887 15.5098 66.2168 15.1172 66.5215 14.6953ZM80.3027 30.1641C79.7402 31.5469 79.0723 32.666 78.2988 33.5215C77.5371 34.377 76.7344 35.0449 75.8906 35.5254C75.0469 35.9941 74.1914 36.3105 73.3242 36.4746C72.4688 36.6387 71.666 36.7207 70.916 36.7207C70.3184 36.7207 69.791 36.6562 69.334 36.5273C68.877 36.3984 68.4902 36.2402 68.1738 36.0527C67.8574 35.877 67.6172 35.6895 67.4531 35.4902C67.2891 35.291 67.207 35.1152 67.207 34.9629C67.207 34.752 67.2422 34.5586 67.3125 34.3828C67.3828 34.207 67.4707 34.0547 67.5762 33.9258C67.6934 33.7852 67.8164 33.6797 67.9453 33.6094C68.0859 33.5273 68.2207 33.4863 68.3496 33.4863C68.502 33.4863 68.6191 33.5449 68.7012 33.6621C68.7949 33.7793 68.8887 33.9258 68.9824 34.1016C69.0762 34.2773 69.1875 34.4707 69.3164 34.6816C69.4453 34.8926 69.627 35.0918 69.8613 35.2793C70.0957 35.1621 70.3887 34.9043 70.7402 34.5059C71.0918 34.0957 71.4668 33.6035 71.8652 33.0293C72.2637 32.4434 72.6621 31.7988 73.0605 31.0957C73.4707 30.3809 73.8457 29.6543 74.1855 28.916C74.6309 27.9316 74.959 27.0879 75.1699 26.3848C75.3809 25.6699 75.498 25.1426 75.5215 24.8027C75.5215 24.6621 75.5039 24.5508 75.4688 24.4688C75.4336 24.375 75.3809 24.3281 75.3105 24.3281C75.1934 24.3281 74.9648 24.457 74.625 24.7148C74.2852 24.9609 73.8809 25.3008 73.4121 25.7344C72.9551 26.1562 72.4453 26.6602 71.8828 27.2461C71.332 27.8203 70.7754 28.4355 70.2129 29.0918C69.6504 29.7363 69.1055 30.4043 68.5781 31.0957C68.0508 31.7871 67.582 32.4609 67.1719 33.1172C67.0312 33.5156 66.8496 34.0605 66.627 34.752C66.3926 35.4316 66.1406 36.1758 65.8711 36.9844C65.5898 37.793 65.3086 38.625 65.0273 39.4805C64.7461 40.3359 64.4824 41.127 64.2363 41.8535C63.9902 42.5918 63.7734 43.2246 63.5859 43.752C63.3984 44.291 63.2754 44.6367 63.2168 44.7891C63.0176 45.2578 62.8066 45.6211 62.584 45.8789C62.3613 46.1367 62.1504 46.2656 61.9512 46.2656C61.8457 46.2656 61.7461 46.1895 61.6523 46.0371C61.5469 45.8965 61.4531 45.7031 61.3711 45.457C61.2891 45.2227 61.2246 44.9531 61.1777 44.6484C61.1191 44.3438 61.0898 44.0391 61.0898 43.7344C61.0898 43.5234 61.1426 43.1953 61.248 42.75C61.3418 42.3047 61.4883 41.7891 61.6875 41.2031C61.8867 40.6172 62.127 39.9844 62.4082 39.3047C62.6895 38.625 63.0176 37.9336 63.3926 37.2305C64.0254 36 64.6406 34.7754 65.2383 33.5566C65.8359 32.3262 66.4102 31.0957 66.9609 29.8652C67.5 28.623 68.0039 27.375 68.4727 26.1211C68.9414 24.8672 69.3574 23.6016 69.7207 22.3242L70.4766 19.6523C70.5 19.5469 70.5469 19.4297 70.6172 19.3008C70.6875 19.1719 70.7695 19.0547 70.8633 18.9492C70.9688 18.832 71.0742 18.7383 71.1797 18.668C71.2852 18.5859 71.3906 18.5449 71.4961 18.5449C71.6133 18.5449 71.7598 18.6328 71.9355 18.8086C72.1113 18.9844 72.2812 19.1953 72.4453 19.4414C72.6094 19.6758 72.75 19.9102 72.8672 20.1445C72.9844 20.3789 73.043 20.5547 73.043 20.6719C73.043 20.9883 72.9316 21.4746 72.709 22.1309C72.498 22.7754 72.1875 23.5195 71.7773 24.3633C71.5898 24.7266 71.3496 25.1836 71.0566 25.7344C70.7754 26.2734 70.4648 26.8418 70.125 27.4395C70.4297 27.0879 70.7051 26.7773 70.9512 26.5078C71.1973 26.2383 71.4023 26.0098 71.5664 25.8223C71.7656 25.6113 71.9414 25.418 72.0938 25.2422C72.5859 24.6797 73.0488 24.2227 73.4824 23.8711C73.916 23.5078 74.3086 23.2324 74.6602 23.0449C75.0234 22.8457 75.3516 22.7109 75.6445 22.6406C75.9492 22.5703 76.2188 22.5352 76.4531 22.5352C76.6055 22.5352 76.7637 22.5762 76.9277 22.6582C77.0918 22.7285 77.2441 22.8633 77.3848 23.0625C77.5254 23.2617 77.6367 23.5312 77.7188 23.8711C77.8125 24.2109 77.8594 24.6445 77.8594 25.1719C77.8594 25.7227 77.7832 26.332 77.6309 27C77.4785 27.668 77.2617 28.3535 76.9805 29.0566C76.6992 29.7598 76.3594 30.4629 75.9609 31.166C75.5742 31.8691 75.1406 32.5254 74.6602 33.1348C74.1914 33.7441 73.6816 34.2891 73.1309 34.7695C72.5801 35.25 72.0059 35.625 71.4082 35.8945H71.707C72.4805 35.8945 73.2305 35.8008 73.957 35.6133C74.6953 35.4258 75.4043 35.1035 76.084 34.6465C76.7637 34.1895 77.4141 33.5801 78.0352 32.8184C78.6562 32.0449 79.2363 31.0781 79.7754 29.918C79.8105 29.8242 79.8574 29.7539 79.916 29.707C79.9746 29.6602 80.0332 29.6367 80.0918 29.6367C80.1621 29.6367 80.2266 29.6602 80.2852 29.707C80.3438 29.7539 80.373 29.8242 80.373 29.918C80.373 29.9883 80.3496 30.0703 80.3027 30.1641ZM89.6543 18C89.6543 18.2578 89.5781 18.5684 89.4258 18.9316C89.2734 19.2832 89.0742 19.623 88.8281 19.9512C88.5938 20.2676 88.3301 20.5371 88.0371 20.7598C87.7559 20.9824 87.4805 21.0938 87.2109 21.0938C86.8477 21.0938 86.5371 20.9824 86.2793 20.7598C86.0332 20.5371 85.9102 20.3027 85.9102 20.0566C85.9102 19.9512 85.9453 19.793 86.0156 19.582C86.0977 19.3711 86.1973 19.1426 86.3145 18.8965C86.4434 18.6387 86.5898 18.3809 86.7539 18.123C86.9297 17.8535 87.1113 17.6133 87.2988 17.4023C87.498 17.1797 87.6914 17.0039 87.8789 16.875C88.0781 16.7344 88.2715 16.6641 88.459 16.6641C88.9277 16.6641 89.2441 16.7754 89.4082 16.998C89.5723 17.2207 89.6543 17.5547 89.6543 18ZM87.3867 30.1641C86.9766 31.0898 86.5254 31.9395 86.0332 32.7129C85.5527 33.4746 85.0547 34.1309 84.5391 34.6816C84.0234 35.2207 83.4902 35.6426 82.9395 35.9473C82.4004 36.252 81.8672 36.4043 81.3398 36.4043C80.9414 36.4043 80.6016 36.3164 80.3203 36.1406C80.0391 35.9766 79.8105 35.748 79.6348 35.4551C79.4473 35.1621 79.3125 34.8223 79.2305 34.4355C79.1484 34.0371 79.1074 33.6094 79.1074 33.1523C79.1074 32.2969 79.2246 31.4531 79.459 30.6211C79.6934 29.7773 79.9922 28.957 80.3555 28.1602C80.7305 27.3516 81.1523 26.5605 81.6211 25.7871C82.0898 25.0137 82.5586 24.2637 83.0273 23.5371C83.1328 23.3613 83.2617 23.2031 83.4141 23.0625C83.5664 22.9219 83.7129 22.8516 83.8535 22.8516C84.0527 22.8516 84.252 22.8867 84.4512 22.957C84.6504 23.0273 84.832 23.1211 84.9961 23.2383C85.1602 23.3438 85.2891 23.4668 85.3828 23.6074C85.4883 23.7363 85.541 23.8711 85.541 24.0117C85.541 24.1758 85.4414 24.4453 85.2422 24.8203C85.043 25.1953 84.791 25.6465 84.4863 26.1738C84.1816 26.6895 83.8535 27.2637 83.502 27.8965C83.1621 28.5293 82.8398 29.1855 82.5352 29.8652C82.2305 30.5449 81.9785 31.2305 81.7793 31.9219C81.5801 32.6016 81.4805 33.252 81.4805 33.873C81.4805 34.0254 81.4863 34.1777 81.498 34.3301C81.5215 34.4707 81.5625 34.5996 81.6211 34.7168C81.6914 34.8223 81.791 34.9102 81.9199 34.9805C82.0605 35.0391 82.248 35.0684 82.4824 35.0684C82.7285 35.0684 83.0332 34.9219 83.3965 34.6289C83.7715 34.3359 84.1582 33.9492 84.5566 33.4688C84.9668 32.9766 85.3711 32.4258 85.7695 31.8164C86.1797 31.1953 86.5371 30.5625 86.8418 29.918C86.9355 29.7305 87.041 29.6367 87.1582 29.6367C87.2402 29.6367 87.3105 29.6602 87.3691 29.707C87.4277 29.7539 87.457 29.8242 87.457 29.918C87.457 29.9883 87.4336 30.0703 87.3867 30.1641ZM98.4785 29.8477C98.3379 30.1992 98.1445 30.5859 97.8984 31.0078C97.6641 31.4297 97.377 31.8223 97.0371 32.1855C96.709 32.5371 96.334 32.8359 95.9121 33.082C95.4902 33.3281 95.0156 33.4512 94.4883 33.4512C94.3359 33.4512 94.1895 33.4395 94.0488 33.416C93.9199 33.3926 93.791 33.3516 93.6621 33.293C93.334 33.7852 92.9824 34.248 92.6074 34.6816C92.2441 35.1152 91.8516 35.4961 91.4297 35.8242C91.0078 36.1406 90.5625 36.3926 90.0938 36.5801C89.6367 36.7676 89.1562 36.8613 88.6523 36.8613C88.1836 36.8613 87.7676 36.7793 87.4043 36.6152C87.0527 36.4512 86.7539 36.2227 86.5078 35.9297C86.2617 35.6367 86.0801 35.291 85.9629 34.8926C85.834 34.4824 85.7695 34.0371 85.7695 33.5566C85.7695 33.0996 85.834 32.5547 85.9629 31.9219C86.0801 31.2891 86.2852 30.6211 86.5781 29.918C86.8594 29.2148 87.2227 28.5 87.668 27.7734C88.125 27.0469 88.6816 26.3613 89.3379 25.7168C89.9941 25.0605 90.7559 24.4746 91.623 23.959C92.502 23.4316 93.5039 23.0156 94.6289 22.7109H94.7695C94.9219 22.7109 95.0625 22.7402 95.1914 22.7988C95.3203 22.8574 95.4316 22.9336 95.5254 23.0273C95.6191 23.1211 95.6895 23.2207 95.7363 23.3262C95.7949 23.4316 95.8242 23.5254 95.8242 23.6074C95.8242 23.7949 95.7715 23.9297 95.666 24.0117C95.5605 24.0938 95.4082 24.1523 95.209 24.1875C95.1035 24.2109 94.9219 24.2461 94.6641 24.293C94.418 24.3281 94.1074 24.4277 93.7324 24.5918C93.3691 24.7441 92.959 24.9902 92.502 25.3301C92.0449 25.6582 91.5645 26.1211 91.0605 26.7188C90.7207 27.1172 90.3926 27.5977 90.0762 28.1602C89.7715 28.7109 89.502 29.2852 89.2676 29.8828C89.0332 30.4805 88.8398 31.0781 88.6875 31.6758C88.5469 32.2617 88.4766 32.7891 88.4766 33.2578C88.4766 33.8789 88.623 34.3652 88.916 34.7168C89.209 35.0684 89.5547 35.2441 89.9531 35.2441C90.3867 35.2441 90.8496 35.0156 91.3418 34.5586C91.8457 34.0898 92.3438 33.4688 92.8359 32.6953C92.6016 32.4023 92.4082 32.0391 92.2559 31.6055C92.1035 31.1719 92.0273 30.6562 92.0273 30.0586C92.0273 29.4023 92.1094 28.7461 92.2734 28.0898C92.4492 27.4336 92.6777 26.8418 92.959 26.3145C93.2402 25.7871 93.5566 25.3594 93.9082 25.0312C94.2715 24.6914 94.6406 24.5215 95.0156 24.5215C95.3789 24.5215 95.6484 24.6855 95.8242 25.0137C96.0117 25.3301 96.1055 25.752 96.1055 26.2793C96.1055 26.6309 96.0586 27.0527 95.9648 27.5449C95.8711 28.0254 95.7363 28.5469 95.5605 29.1094C95.3848 29.6719 95.168 30.252 94.9102 30.8496C94.6641 31.4473 94.377 32.0332 94.0488 32.6074C94.2129 32.6895 94.4062 32.7305 94.6289 32.7305C95.0391 32.7305 95.4023 32.6367 95.7188 32.4492C96.0469 32.2617 96.3398 32.0215 96.5977 31.7285C96.8555 31.4355 97.0898 31.1074 97.3008 30.7441C97.5117 30.3809 97.7109 30.0234 97.8984 29.6719C98.0156 29.4258 98.1387 29.3027 98.2676 29.3027C98.3379 29.3027 98.4023 29.3262 98.4609 29.373C98.5195 29.4199 98.5488 29.4785 98.5488 29.5488C98.5488 29.6543 98.5254 29.7539 98.4785 29.8477ZM93.0469 30.5332C93.0469 30.8145 93.0645 31.0723 93.0996 31.3066C93.1348 31.541 93.1992 31.7402 93.293 31.9043C93.5273 31.4941 93.7441 31.0781 93.9434 30.6562C94.1426 30.2227 94.3359 29.7715 94.5234 29.3027C94.6875 28.8691 94.8105 28.5117 94.8926 28.2305C94.9746 27.9375 95.0156 27.709 95.0156 27.5449C95.0156 27.1582 94.8867 26.9648 94.6289 26.9648C94.4531 26.9648 94.2715 27.0586 94.084 27.2461C93.9082 27.4336 93.7383 27.6914 93.5742 28.0195C93.4219 28.3477 93.293 28.7285 93.1875 29.1621C93.0938 29.584 93.0469 30.041 93.0469 30.5332Z" fill="white"/>
<path d="M44.5469 56.9844C44.5469 56.3958 44.6562 55.8516 44.875 55.3516C45.0938 54.8464 45.3932 54.4089 45.7734 54.0391C46.1589 53.6693 46.612 53.3802 47.1328 53.1719C47.6536 52.9635 48.2135 52.8594 48.8125 52.8594C49.401 52.8594 49.9531 52.9583 50.4688 53.1562C50.9896 53.349 51.4427 53.625 51.8281 53.9844C52.2135 54.3438 52.5156 54.7812 52.7344 55.2969C52.9583 55.8125 53.0703 56.3906 53.0703 57.0312C53.0703 57.5677 52.9766 58.0833 52.7891 58.5781C52.6016 59.0729 52.3255 59.5104 51.9609 59.8906C51.5964 60.2708 51.1484 60.5755 50.6172 60.8047C50.0911 61.0286 49.4844 61.1406 48.7969 61.1406C48.2135 61.1406 47.6641 61.0443 47.1484 60.8516C46.6328 60.6589 46.1823 60.3828 45.7969 60.0234C45.4115 59.6641 45.1068 59.2292 44.8828 58.7188C44.6589 58.2031 44.5469 57.625 44.5469 56.9844ZM48.9766 60.5703C49.3464 60.5703 49.6849 60.4974 49.9922 60.3516C50.3047 60.2057 50.5729 59.9948 50.7969 59.7188C51.0208 59.4427 51.1953 59.1068 51.3203 58.7109C51.4453 58.3151 51.5078 57.8672 51.5078 57.3672C51.5078 56.8047 51.4479 56.2839 51.3281 55.8047C51.2083 55.3203 51.0286 54.9036 50.7891 54.5547C50.5547 54.2005 50.2578 53.9245 49.8984 53.7266C49.5391 53.5286 49.1198 53.4297 48.6406 53.4297C48.2708 53.4297 47.9323 53.5026 47.625 53.6484C47.3177 53.7891 47.0495 53.9948 46.8203 54.2656C46.5964 54.5365 46.4219 54.8698 46.2969 55.2656C46.1719 55.6562 46.1094 56.1016 46.1094 56.6016C46.1094 57.1641 46.1693 57.6875 46.2891 58.1719C46.4141 58.6562 46.5964 59.0781 46.8359 59.4375C47.0755 59.7917 47.3724 60.0703 47.7266 60.2734C48.0859 60.4714 48.5026 60.5703 48.9766 60.5703ZM60.2031 55.7344C60.2031 55.0469 60.0651 54.5417 59.7891 54.2188C59.513 53.8958 59.1432 53.7344 58.6797 53.7344C58.513 53.7344 58.3255 53.7708 58.1172 53.8438C57.9089 53.9115 57.6953 54.0052 57.4766 54.125C57.2578 54.2396 57.0391 54.375 56.8203 54.5312C56.6016 54.6875 56.3958 54.8542 56.2031 55.0312L56.1875 56.0547V57.9453C56.1875 58.388 56.1927 58.776 56.2031 59.1094C56.2135 59.4375 56.2292 59.7214 56.25 59.9609C56.2708 60.2005 56.2943 60.401 56.3203 60.5625C56.3464 60.724 56.375 60.8594 56.4062 60.9688V61H54.6016V60.9688C54.6328 60.8594 54.6615 60.724 54.6875 60.5625C54.7188 60.401 54.7422 60.2005 54.7578 59.9609C54.7786 59.7214 54.7943 59.4375 54.8047 59.1094C54.8203 58.776 54.8281 58.388 54.8281 57.9453V56.0547C54.8281 55.612 54.8203 55.2266 54.8047 54.8984C54.7943 54.5651 54.7786 54.2786 54.7578 54.0391C54.7422 53.7995 54.7188 53.599 54.6875 53.4375C54.6615 53.276 54.6328 53.1406 54.6016 53.0312V53H56.4062V53.0312C56.3646 53.1615 56.3307 53.3281 56.3047 53.5312C56.2839 53.7292 56.2604 53.9896 56.2344 54.3125C56.4479 54.1354 56.6771 53.9583 56.9219 53.7812C57.1719 53.6042 57.4297 53.4479 57.6953 53.3125C57.9609 53.1719 58.2318 53.0599 58.5078 52.9766C58.7839 52.888 59.0547 52.8438 59.3203 52.8438C59.7266 52.8438 60.0703 52.9141 60.3516 53.0547C60.638 53.1953 60.8698 53.3802 61.0469 53.6094C61.2292 53.8385 61.3594 54.1016 61.4375 54.3984C61.5208 54.6901 61.5625 54.987 61.5625 55.2891V57.9453C61.5625 58.388 61.5677 58.776 61.5781 59.1094C61.5885 59.4375 61.6042 59.7214 61.625 59.9609C61.6458 60.2005 61.6693 60.401 61.6953 60.5625C61.7214 60.724 61.75 60.8594 61.7812 60.9688V61H59.9766V60.9688C60.0078 60.8594 60.0365 60.724 60.0625 60.5625C60.0938 60.401 60.1172 60.2005 60.1328 59.9609C60.1536 59.7214 60.1693 59.4375 60.1797 59.1094C60.1953 58.776 60.2031 58.388 60.2031 57.9453V55.7344ZM63.9688 52.375C63.9688 51.9323 63.9609 51.5469 63.9453 51.2188C63.9349 50.8854 63.9193 50.599 63.8984 50.3594C63.8828 50.1198 63.8594 49.9193 63.8281 49.7578C63.8021 49.5964 63.7734 49.4609 63.7422 49.3516V49.3203H65.5469V49.3516C65.5156 49.4609 65.487 49.5964 65.4609 49.7578C65.4349 49.9193 65.4115 50.1198 65.3906 50.3594C65.3698 50.599 65.3542 50.8854 65.3438 51.2188C65.3333 51.5469 65.3281 51.9323 65.3281 52.375V57.9453C65.3281 58.388 65.3333 58.776 65.3438 59.1094C65.3542 59.4375 65.3698 59.7214 65.3906 59.9609C65.4115 60.2005 65.4349 60.401 65.4609 60.5625C65.487 60.724 65.5156 60.8594 65.5469 60.9688V61H63.7422V60.9688C63.7734 60.8594 63.8021 60.724 63.8281 60.5625C63.8594 60.401 63.8828 60.2005 63.8984 59.9609C63.9193 59.7214 63.9349 59.4375 63.9453 59.1094C63.9609 58.776 63.9688 58.388 63.9688 57.9453V52.375ZM67.8281 56.0547C67.8281 55.612 67.8203 55.2266 67.8047 54.8984C67.7943 54.5651 67.7786 54.2786 67.7578 54.0391C67.7422 53.7995 67.7188 53.599 67.6875 53.4375C67.6615 53.276 67.6328 53.1406 67.6016 53.0312V53H69.4062V53.0312C69.375 53.1406 69.3464 53.276 69.3203 53.4375C69.2943 53.599 69.2708 53.7995 69.25 54.0391C69.2292 54.2786 69.2135 54.5651 69.2031 54.8984C69.1927 55.2266 69.1875 55.612 69.1875 56.0547V57.9453C69.1875 58.388 69.1927 58.776 69.2031 59.1094C69.2135 59.4375 69.2292 59.7214 69.25 59.9609C69.2708 60.2005 69.2943 60.401 69.3203 60.5625C69.3464 60.724 69.375 60.8594 69.4062 60.9688V61H67.6016V60.9688C67.6328 60.8594 67.6615 60.724 67.6875 60.5625C67.7188 60.401 67.7422 60.2005 67.7578 59.9609C67.7786 59.7214 67.7943 59.4375 67.8047 59.1094C67.8203 58.776 67.8281 58.388 67.8281 57.9453V56.0547ZM67.6641 50.6328C67.6641 50.5182 67.6849 50.4115 67.7266 50.3125C67.7734 50.2083 67.8333 50.1198 67.9062 50.0469C67.9792 49.9688 68.0651 49.9089 68.1641 49.8672C68.2682 49.8203 68.3802 49.7969 68.5 49.7969C68.6198 49.7969 68.7292 49.8203 68.8281 49.8672C68.9323 49.9089 69.0208 49.9688 69.0938 50.0469C69.1719 50.1198 69.2318 50.2083 69.2734 50.3125C69.3203 50.4115 69.3438 50.5182 69.3438 50.6328C69.3438 50.8724 69.263 51.0729 69.1016 51.2344C68.9401 51.3958 68.7396 51.4766 68.5 51.4766C68.3802 51.4766 68.2682 51.4557 68.1641 51.4141C68.0651 51.3672 67.9792 51.3073 67.9062 51.2344C67.8333 51.1562 67.7734 51.0677 67.7266 50.9688C67.6849 50.8646 67.6641 50.7526 67.6641 50.6328ZM77.0156 55.7344C77.0156 55.0469 76.8776 54.5417 76.6016 54.2188C76.3255 53.8958 75.9557 53.7344 75.4922 53.7344C75.3255 53.7344 75.138 53.7708 74.9297 53.8438C74.7214 53.9115 74.5078 54.0052 74.2891 54.125C74.0703 54.2396 73.8516 54.375 73.6328 54.5312C73.4141 54.6875 73.2083 54.8542 73.0156 55.0312L73 56.0547V57.9453C73 58.388 73.0052 58.776 73.0156 59.1094C73.026 59.4375 73.0417 59.7214 73.0625 59.9609C73.0833 60.2005 73.1068 60.401 73.1328 60.5625C73.1589 60.724 73.1875 60.8594 73.2188 60.9688V61H71.4141V60.9688C71.4453 60.8594 71.474 60.724 71.5 60.5625C71.5312 60.401 71.5547 60.2005 71.5703 59.9609C71.5911 59.7214 71.6068 59.4375 71.6172 59.1094C71.6328 58.776 71.6406 58.388 71.6406 57.9453V56.0547C71.6406 55.612 71.6328 55.2266 71.6172 54.8984C71.6068 54.5651 71.5911 54.2786 71.5703 54.0391C71.5547 53.7995 71.5312 53.599 71.5 53.4375C71.474 53.276 71.4453 53.1406 71.4141 53.0312V53H73.2188V53.0312C73.1771 53.1615 73.1432 53.3281 73.1172 53.5312C73.0964 53.7292 73.0729 53.9896 73.0469 54.3125C73.2604 54.1354 73.4896 53.9583 73.7344 53.7812C73.9844 53.6042 74.2422 53.4479 74.5078 53.3125C74.7734 53.1719 75.0443 53.0599 75.3203 52.9766C75.5964 52.888 75.8672 52.8438 76.1328 52.8438C76.5391 52.8438 76.8828 52.9141 77.1641 53.0547C77.4505 53.1953 77.6823 53.3802 77.8594 53.6094C78.0417 53.8385 78.1719 54.1016 78.25 54.3984C78.3333 54.6901 78.375 54.987 78.375 55.2891V57.9453C78.375 58.388 78.3802 58.776 78.3906 59.1094C78.401 59.4375 78.4167 59.7214 78.4375 59.9609C78.4583 60.2005 78.4818 60.401 78.5078 60.5625C78.5339 60.724 78.5625 60.8594 78.5938 60.9688V61H76.7891V60.9688C76.8203 60.8594 76.849 60.724 76.875 60.5625C76.9062 60.401 76.9297 60.2005 76.9453 59.9609C76.9661 59.7214 76.9818 59.4375 76.9922 59.1094C77.0078 58.776 77.0156 58.388 77.0156 57.9453V55.7344ZM84.2344 61.1406C83.6562 61.1406 83.1146 61.0495 82.6094 60.8672C82.1042 60.6849 81.6641 60.4193 81.2891 60.0703C80.9141 59.7161 80.6172 59.2812 80.3984 58.7656C80.1849 58.2448 80.0781 57.651 80.0781 56.9844C80.0781 56.3958 80.1771 55.8516 80.375 55.3516C80.5729 54.8464 80.8464 54.4089 81.1953 54.0391C81.5443 53.6693 81.9505 53.3802 82.4141 53.1719C82.8828 52.9635 83.388 52.8594 83.9297 52.8594C84.4661 52.8594 84.9635 52.9531 85.4219 53.1406C85.8802 53.3229 86.276 53.5911 86.6094 53.9453C86.9479 54.2943 87.2135 54.7292 87.4062 55.25C87.6042 55.7656 87.7109 56.3542 87.7266 57.0156C87.138 57.0052 86.5495 56.9974 85.9609 56.9922C85.3724 56.987 84.7604 56.9844 84.125 56.9844C83.6719 56.9844 83.2292 56.987 82.7969 56.9922C82.3698 56.9974 81.9844 57.0052 81.6406 57.0156C81.6719 57.5573 81.7552 58.0469 81.8906 58.4844C82.0312 58.9219 82.2214 59.2969 82.4609 59.6094C82.7057 59.9167 83 60.1536 83.3438 60.3203C83.6927 60.487 84.0859 60.5703 84.5234 60.5703C84.8255 60.5703 85.1094 60.5365 85.375 60.4688C85.6458 60.3958 85.8906 60.2969 86.1094 60.1719C86.3281 60.0469 86.5234 59.901 86.6953 59.7344C86.8672 59.5625 87.013 59.3776 87.1328 59.1797L87.2266 59.2266L86.6484 60.6172C86.3672 60.763 86.0312 60.888 85.6406 60.9922C85.25 61.0911 84.7812 61.1406 84.2344 61.1406ZM83.1953 56.375C83.7161 56.375 84.237 56.375 84.7578 56.375C85.2839 56.3698 85.7604 56.3594 86.1875 56.3438C86.1406 55.8906 86.0521 55.4844 85.9219 55.125C85.7917 54.7656 85.625 54.4609 85.4219 54.2109C85.2188 53.9609 84.9792 53.7682 84.7031 53.6328C84.4271 53.4974 84.1224 53.4297 83.7891 53.4297C83.487 53.4297 83.2083 53.4974 82.9531 53.6328C82.7031 53.763 82.4844 53.9531 82.2969 54.2031C82.1094 54.4531 81.9583 54.7604 81.8438 55.125C81.7292 55.4844 81.6615 55.8958 81.6406 56.3594C81.875 56.3698 82.1224 56.375 82.3828 56.375C82.6432 56.375 82.9141 56.375 83.1953 56.375Z" fill="white"/>
</svg>
